# MagicaVoxel @ Ephtracy

# group
g casterChairA

# material
mtllib casterChairA.mtl
usemtl palette

# normals
vn -1 0 0
vn 1 0 0
vn 0 0 1
vn 0 0 -1
vn 0 -1 0
vn 0 1 0

# texcoords
vt 0.990234 0.5
vt 0.994141 0.5

# verts
v -3.5 0 0.5
v -3.5 0 -0.5
v -3.5 1 0.5
v -3.5 1 -0.5
v -3.5 5 3.5
v -3.5 5 -3.5
v -3.5 6 3.5
v -3.5 6 2.5
v -3.5 6 -2.5
v -3.5 6 -3.5
v -3.5 7 1.5
v -3.5 7 0.5
v -3.5 7 -0.5
v -3.5 7 -1.5
v -3.5 8 2.5
v -3.5 8 1.5
v -3.5 8 0.5
v -3.5 8 -0.5
v -3.5 8 -1.5
v -3.5 8 -2.5
v -3.5 9 2.5
v -3.5 9 1.5
v -3.5 9 0.5
v -3.5 9 -0.5
v -3.5 9 -1.5
v -3.5 9 -2.5
v -3.5 10 2.5
v -3.5 10 1.5
v -3.5 10 0.5
v -3.5 10 -0.5
v -3.5 10 -1.5
v -3.5 10 -2.5
v -3.5 11 2.5
v -3.5 11 1.5
v -3.5 11 0.5
v -3.5 11 -0.5
v -3.5 11 -1.5
v -3.5 11 -2.5
v -3.5 12 2.5
v -3.5 12 1.5
v -3.5 12 0.5
v -3.5 12 -0.5
v -3.5 12 -1.5
v -3.5 12 -2.5
v -3.5 13 3.5
v -3.5 13 2.5
v -3.5 13 1.5
v -3.5 13 0.5
v -3.5 13 -0.5
v -3.5 13 -1.5
v -3.5 13 -2.5
v -3.5 13 -3.5
v -3.5 14 2.5
v -3.5 14 -2.5
v -2.5 1 0.5
v -2.5 1 -0.5
v -2.5 2 0.5
v -2.5 2 -0.5
v -0.5 0 3.5
v -0.5 0 2.5
v -0.5 0 -2.5
v -0.5 0 -3.5
v -0.5 1 3.5
v -0.5 1 2.5
v -0.5 1 0.5
v -0.5 1 -0.5
v -0.5 1 -2.5
v -0.5 1 -3.5
v -0.5 2 2.5
v -0.5 2 0.5
v -0.5 2 -0.5
v -0.5 2 -2.5
v -0.5 3 1.5
v -0.5 3 0.5
v -0.5 3 -0.5
v -0.5 3 -1.5
v -0.5 5 1.5
v -0.5 5 0.5
v -0.5 5 -0.5
v -0.5 5 -1.5
v 2.5 0 0.5
v 2.5 0 -0.5
v 2.5 1 0.5
v 2.5 1 -0.5
v -2.5 0 0.5
v -2.5 0 -0.5
v -2.5 1 0.5
v -2.5 1 -0.5
v -2.5 6 3.5
v -2.5 6 2.5
v -2.5 6 -2.5
v -2.5 6 -3.5
v -2.5 7 1.5
v -2.5 7 0.5
v -2.5 7 -0.5
v -2.5 7 -1.5
v -2.5 8 2.5
v -2.5 8 1.5
v -2.5 8 0.5
v -2.5 8 -0.5
v -2.5 8 -1.5
v -2.5 8 -2.5
v -2.5 9 2.5
v -2.5 9 1.5
v -2.5 9 0.5
v -2.5 9 -0.5
v -2.5 9 -1.5
v -2.5 9 -2.5
v -2.5 10 2.5
v -2.5 10 1.5
v -2.5 10 0.5
v -2.5 10 -0.5
v -2.5 10 -1.5
v -2.5 10 -2.5
v -2.5 11 2.5
v -2.5 11 1.5
v -2.5 11 0.5
v -2.5 11 -0.5
v -2.5 11 -1.5
v -2.5 11 -2.5
v -2.5 12 2.5
v -2.5 12 1.5
v -2.5 12 0.5
v -2.5 12 -0.5
v -2.5 12 -1.5
v -2.5 12 -2.5
v -2.5 13 3.5
v -2.5 13 2.5
v -2.5 13 1.5
v -2.5 13 0.5
v -2.5 13 -0.5
v -2.5 13 -1.5
v -2.5 13 -2.5
v -2.5 13 -3.5
v -2.5 14 2.5
v -2.5 14 -2.5
v 0.5 0 3.5
v 0.5 0 2.5
v 0.5 0 -2.5
v 0.5 0 -3.5
v 0.5 1 3.5
v 0.5 1 2.5
v 0.5 1 0.5
v 0.5 1 -0.5
v 0.5 1 -2.5
v 0.5 1 -3.5
v 0.5 2 2.5
v 0.5 2 0.5
v 0.5 2 -0.5
v 0.5 2 -2.5
v 0.5 3 1.5
v 0.5 3 0.5
v 0.5 3 -0.5
v 0.5 3 -1.5
v 0.5 5 1.5
v 0.5 5 0.5
v 0.5 5 -0.5
v 0.5 5 -1.5
v 1.5 3 0.5
v 1.5 3 -0.5
v 1.5 5 0.5
v 1.5 5 -0.5
v 2.5 1 0.5
v 2.5 1 -0.5
v 2.5 2 0.5
v 2.5 2 -0.5
v 2.5 5 3.5
v 2.5 5 2.5
v 2.5 5 -2.5
v 2.5 5 -3.5
v 2.5 6 3.5
v 2.5 6 2.5
v 2.5 6 -2.5
v 2.5 6 -3.5
v 3.5 0 0.5
v 3.5 0 -0.5
v 3.5 1 0.5
v 3.5 1 -0.5
v 3.5 5 2.5
v 3.5 5 -2.5
v 3.5 6 2.5
v 3.5 6 -2.5
v -3.5 5 3.5
v -3.5 6 3.5
v -3.5 13 3.5
v -2.5 6 3.5
v -2.5 13 3.5
v -0.5 0 3.5
v -0.5 1 3.5
v 0.5 0 3.5
v 0.5 1 3.5
v 2.5 5 3.5
v 2.5 6 3.5
v -3.5 13 2.5
v -3.5 14 2.5
v -2.5 13 2.5
v -2.5 14 2.5
v -0.5 1 2.5
v -0.5 2 2.5
v 0.5 1 2.5
v 0.5 2 2.5
v 2.5 5 2.5
v 2.5 6 2.5
v 3.5 5 2.5
v 3.5 6 2.5
v -3.5 8 1.5
v -3.5 9 1.5
v -3.5 10 1.5
v -3.5 11 1.5
v -3.5 12 1.5
v -3.5 13 1.5
v -2.5 8 1.5
v -2.5 9 1.5
v -2.5 10 1.5
v -2.5 11 1.5
v -2.5 12 1.5
v -2.5 13 1.5
v -0.5 3 1.5
v -0.5 5 1.5
v 0.5 3 1.5
v 0.5 5 1.5
v -3.5 0 0.5
v -3.5 1 0.5
v -3.5 7 0.5
v -3.5 8 0.5
v -3.5 9 0.5
v -3.5 10 0.5
v -3.5 11 0.5
v -3.5 12 0.5
v -2.5 0 0.5
v -2.5 1 0.5
v -2.5 2 0.5
v -2.5 7 0.5
v -2.5 8 0.5
v -2.5 9 0.5
v -2.5 10 0.5
v -2.5 11 0.5
v -2.5 12 0.5
v -0.5 1 0.5
v -0.5 2 0.5
v -0.5 3 0.5
v 0.5 1 0.5
v 0.5 2 0.5
v 0.5 3 0.5
v 0.5 5 0.5
v 1.5 3 0.5
v 1.5 5 0.5
v 2.5 0 0.5
v 2.5 1 0.5
v 2.5 2 0.5
v 3.5 0 0.5
v 3.5 1 0.5
v -3.5 8 -0.5
v -3.5 9 -0.5
v -3.5 10 -0.5
v -3.5 11 -0.5
v -3.5 12 -0.5
v -3.5 13 -0.5
v -2.5 8 -0.5
v -2.5 9 -0.5
v -2.5 10 -0.5
v -2.5 11 -0.5
v -2.5 12 -0.5
v -2.5 13 -0.5
v -3.5 7 -1.5
v -3.5 8 -1.5
v -3.5 9 -1.5
v -3.5 10 -1.5
v -3.5 11 -1.5
v -3.5 12 -1.5
v -2.5 7 -1.5
v -2.5 8 -1.5
v -2.5 9 -1.5
v -2.5 10 -1.5
v -2.5 11 -1.5
v -2.5 12 -1.5
v -3.5 8 -2.5
v -3.5 9 -2.5
v -3.5 10 -2.5
v -3.5 11 -2.5
v -3.5 12 -2.5
v -3.5 13 -2.5
v -2.5 8 -2.5
v -2.5 9 -2.5
v -2.5 10 -2.5
v -2.5 11 -2.5
v -2.5 12 -2.5
v -2.5 13 -2.5
v -0.5 0 -2.5
v -0.5 1 -2.5
v 0.5 0 -2.5
v 0.5 1 -2.5
v -3.5 8 2.5
v -3.5 9 2.5
v -3.5 10 2.5
v -3.5 11 2.5
v -3.5 12 2.5
v -3.5 13 2.5
v -2.5 8 2.5
v -2.5 9 2.5
v -2.5 10 2.5
v -2.5 11 2.5
v -2.5 12 2.5
v -2.5 13 2.5
v -0.5 0 2.5
v -0.5 1 2.5
v 0.5 0 2.5
v 0.5 1 2.5
v -3.5 7 1.5
v -3.5 8 1.5
v -3.5 9 1.5
v -3.5 10 1.5
v -3.5 11 1.5
v -3.5 12 1.5
v -2.5 7 1.5
v -2.5 8 1.5
v -2.5 9 1.5
v -2.5 10 1.5
v -2.5 11 1.5
v -2.5 12 1.5
v -3.5 8 0.5
v -3.5 9 0.5
v -3.5 10 0.5
v -3.5 11 0.5
v -3.5 12 0.5
v -3.5 13 0.5
v -2.5 8 0.5
v -2.5 9 0.5
v -2.5 10 0.5
v -2.5 11 0.5
v -2.5 12 0.5
v -2.5 13 0.5
v -3.5 0 -0.5
v -3.5 1 -0.5
v -3.5 7 -0.5
v -3.5 8 -0.5
v -3.5 9 -0.5
v -3.5 10 -0.5
v -3.5 11 -0.5
v -3.5 12 -0.5
v -2.5 0 -0.5
v -2.5 1 -0.5
v -2.5 2 -0.5
v -2.5 7 -0.5
v -2.5 8 -0.5
v -2.5 9 -0.5
v -2.5 10 -0.5
v -2.5 11 -0.5
v -2.5 12 -0.5
v -0.5 1 -0.5
v -0.5 2 -0.5
v -0.5 3 -0.5
v 0.5 1 -0.5
v 0.5 2 -0.5
v 0.5 3 -0.5
v 0.5 5 -0.5
v 1.5 3 -0.5
v 1.5 5 -0.5
v 2.5 0 -0.5
v 2.5 1 -0.5
v 2.5 2 -0.5
v 3.5 0 -0.5
v 3.5 1 -0.5
v -3.5 8 -1.5
v -3.5 9 -1.5
v -3.5 10 -1.5
v -3.5 11 -1.5
v -3.5 12 -1.5
v -3.5 13 -1.5
v -2.5 8 -1.5
v -2.5 9 -1.5
v -2.5 10 -1.5
v -2.5 11 -1.5
v -2.5 12 -1.5
v -2.5 13 -1.5
v -0.5 3 -1.5
v -0.5 5 -1.5
v 0.5 3 -1.5
v 0.5 5 -1.5
v -3.5 13 -2.5
v -3.5 14 -2.5
v -2.5 13 -2.5
v -2.5 14 -2.5
v -0.5 1 -2.5
v -0.5 2 -2.5
v 0.5 1 -2.5
v 0.5 2 -2.5
v 2.5 5 -2.5
v 2.5 6 -2.5
v 3.5 5 -2.5
v 3.5 6 -2.5
v -3.5 5 -3.5
v -3.5 6 -3.5
v -3.5 13 -3.5
v -2.5 6 -3.5
v -2.5 13 -3.5
v -0.5 0 -3.5
v -0.5 1 -3.5
v 0.5 0 -3.5
v 0.5 1 -3.5
v 2.5 5 -3.5
v 2.5 6 -3.5
v -0.5 0 3.5
v 0.5 0 3.5
v -0.5 0 2.5
v 0.5 0 2.5
v -3.5 0 0.5
v -2.5 0 0.5
v 2.5 0 0.5
v 3.5 0 0.5
v -3.5 0 -0.5
v -2.5 0 -0.5
v 2.5 0 -0.5
v 3.5 0 -0.5
v -0.5 0 -2.5
v 0.5 0 -2.5
v -0.5 0 -3.5
v 0.5 0 -3.5
v -0.5 1 2.5
v 0.5 1 2.5
v -2.5 1 0.5
v -0.5 1 0.5
v 0.5 1 0.5
v 2.5 1 0.5
v -2.5 1 -0.5
v -0.5 1 -0.5
v 0.5 1 -0.5
v 2.5 1 -0.5
v -0.5 1 -2.5
v 0.5 1 -2.5
v -0.5 3 1.5
v 0.5 3 1.5
v -0.5 3 0.5
v 0.5 3 0.5
v 1.5 3 0.5
v -0.5 3 -0.5
v 0.5 3 -0.5
v 1.5 3 -0.5
v -0.5 3 -1.5
v 0.5 3 -1.5
v -3.5 5 3.5
v 2.5 5 3.5
v 2.5 5 2.5
v 3.5 5 2.5
v -0.5 5 1.5
v 0.5 5 1.5
v -0.5 5 0.5
v 0.5 5 0.5
v 1.5 5 0.5
v -0.5 5 -0.5
v 0.5 5 -0.5
v 1.5 5 -0.5
v -0.5 5 -1.5
v 0.5 5 -1.5
v 2.5 5 -2.5
v 3.5 5 -2.5
v -3.5 5 -3.5
v 2.5 5 -3.5
v -3.5 8 1.5
v -2.5 8 1.5
v -3.5 8 0.5
v -2.5 8 0.5
v -3.5 8 -0.5
v -2.5 8 -0.5
v -3.5 8 -1.5
v -2.5 8 -1.5
v -3.5 9 2.5
v -2.5 9 2.5
v -3.5 9 1.5
v -2.5 9 1.5
v -3.5 9 0.5
v -2.5 9 0.5
v -3.5 9 -0.5
v -2.5 9 -0.5
v -3.5 9 -1.5
v -2.5 9 -1.5
v -3.5 9 -2.5
v -2.5 9 -2.5
v -3.5 10 1.5
v -2.5 10 1.5
v -3.5 10 0.5
v -2.5 10 0.5
v -3.5 10 -0.5
v -2.5 10 -0.5
v -3.5 10 -1.5
v -2.5 10 -1.5
v -3.5 11 2.5
v -2.5 11 2.5
v -3.5 11 1.5
v -2.5 11 1.5
v -3.5 11 0.5
v -2.5 11 0.5
v -3.5 11 -0.5
v -2.5 11 -0.5
v -3.5 11 -1.5
v -2.5 11 -1.5
v -3.5 11 -2.5
v -2.5 11 -2.5
v -3.5 12 1.5
v -2.5 12 1.5
v -3.5 12 0.5
v -2.5 12 0.5
v -3.5 12 -0.5
v -2.5 12 -0.5
v -3.5 12 -1.5
v -2.5 12 -1.5
v -3.5 13 2.5
v -2.5 13 2.5
v -3.5 13 1.5
v -2.5 13 1.5
v -3.5 13 0.5
v -2.5 13 0.5
v -3.5 13 -0.5
v -2.5 13 -0.5
v -3.5 13 -1.5
v -2.5 13 -1.5
v -3.5 13 -2.5
v -2.5 13 -2.5
v -0.5 1 3.5
v 0.5 1 3.5
v -0.5 1 2.5
v 0.5 1 2.5
v -3.5 1 0.5
v -2.5 1 0.5
v 2.5 1 0.5
v 3.5 1 0.5
v -3.5 1 -0.5
v -2.5 1 -0.5
v 2.5 1 -0.5
v 3.5 1 -0.5
v -0.5 1 -2.5
v 0.5 1 -2.5
v -0.5 1 -3.5
v 0.5 1 -3.5
v -0.5 2 2.5
v 0.5 2 2.5
v -2.5 2 0.5
v -0.5 2 0.5
v 0.5 2 0.5
v 2.5 2 0.5
v -2.5 2 -0.5
v -0.5 2 -0.5
v 0.5 2 -0.5
v 2.5 2 -0.5
v -0.5 2 -2.5
v 0.5 2 -2.5
v -2.5 6 3.5
v 2.5 6 3.5
v -2.5 6 2.5
v 2.5 6 2.5
v 3.5 6 2.5
v -2.5 6 -2.5
v 2.5 6 -2.5
v 3.5 6 -2.5
v -2.5 6 -3.5
v 2.5 6 -3.5
v -3.5 7 1.5
v -2.5 7 1.5
v -3.5 7 0.5
v -2.5 7 0.5
v -3.5 7 -0.5
v -2.5 7 -0.5
v -3.5 7 -1.5
v -2.5 7 -1.5
v -3.5 8 2.5
v -2.5 8 2.5
v -3.5 8 1.5
v -2.5 8 1.5
v -3.5 8 0.5
v -2.5 8 0.5
v -3.5 8 -0.5
v -2.5 8 -0.5
v -3.5 8 -1.5
v -2.5 8 -1.5
v -3.5 8 -2.5
v -2.5 8 -2.5
v -3.5 9 1.5
v -2.5 9 1.5
v -3.5 9 0.5
v -2.5 9 0.5
v -3.5 9 -0.5
v -2.5 9 -0.5
v -3.5 9 -1.5
v -2.5 9 -1.5
v -3.5 10 2.5
v -2.5 10 2.5
v -3.5 10 1.5
v -2.5 10 1.5
v -3.5 10 0.5
v -2.5 10 0.5
v -3.5 10 -0.5
v -2.5 10 -0.5
v -3.5 10 -1.5
v -2.5 10 -1.5
v -3.5 10 -2.5
v -2.5 10 -2.5
v -3.5 11 1.5
v -2.5 11 1.5
v -3.5 11 0.5
v -2.5 11 0.5
v -3.5 11 -0.5
v -2.5 11 -0.5
v -3.5 11 -1.5
v -2.5 11 -1.5
v -3.5 12 2.5
v -2.5 12 2.5
v -3.5 12 1.5
v -2.5 12 1.5
v -3.5 12 0.5
v -2.5 12 0.5
v -3.5 12 -0.5
v -2.5 12 -0.5
v -3.5 12 -1.5
v -2.5 12 -1.5
v -3.5 12 -2.5
v -2.5 12 -2.5
v -3.5 13 3.5
v -2.5 13 3.5
v -3.5 13 2.5
v -2.5 13 2.5
v -3.5 13 -2.5
v -2.5 13 -2.5
v -3.5 13 -3.5
v -2.5 13 -3.5
v -3.5 14 2.5
v -2.5 14 2.5
v -3.5 14 -2.5
v -2.5 14 -2.5

# faces
f 3/2/1 2/2/1 1/2/1
f 4/2/1 2/2/1 3/2/1
f 7/1/1 6/1/1 5/1/1
f 8/1/1 6/1/1 7/1/1
f 9/1/1 6/1/1 8/1/1
f 10/1/1 6/1/1 9/1/1
f 11/1/1 9/1/1 8/1/1
f 12/1/1 9/1/1 11/1/1
f 13/1/1 9/1/1 12/1/1
f 14/1/1 9/1/1 13/1/1
f 15/2/1 8/2/1 7/2/1
f 15/1/1 11/1/1 8/1/1
f 16/1/1 11/1/1 15/1/1
f 17/1/1 13/1/1 12/1/1
f 18/1/1 13/1/1 17/1/1
f 19/1/1 9/1/1 14/1/1
f 20/2/1 10/2/1 9/2/1
f 20/1/1 9/1/1 19/1/1
f 21/2/1 15/2/1 7/2/1
f 22/1/1 17/1/1 16/1/1
f 23/1/1 17/1/1 22/1/1
f 24/1/1 19/1/1 18/1/1
f 25/1/1 19/1/1 24/1/1
f 26/2/1 10/2/1 20/2/1
f 27/2/1 21/2/1 7/2/1
f 27/1/1 22/1/1 21/1/1
f 28/1/1 22/1/1 27/1/1
f 29/1/1 24/1/1 23/1/1
f 30/1/1 24/1/1 29/1/1
f 31/1/1 26/1/1 25/1/1
f 32/2/1 10/2/1 26/2/1
f 32/1/1 26/1/1 31/1/1
f 33/2/1 27/2/1 7/2/1
f 34/1/1 29/1/1 28/1/1
f 35/1/1 29/1/1 34/1/1
f 36/1/1 31/1/1 30/1/1
f 37/1/1 31/1/1 36/1/1
f 38/2/1 10/2/1 32/2/1
f 39/2/1 33/2/1 7/2/1
f 39/1/1 34/1/1 33/1/1
f 40/1/1 34/1/1 39/1/1
f 41/1/1 36/1/1 35/1/1
f 42/1/1 36/1/1 41/1/1
f 43/1/1 38/1/1 37/1/1
f 44/2/1 10/2/1 38/2/1
f 44/1/1 38/1/1 43/1/1
f 45/2/1 39/2/1 7/2/1
f 46/2/1 39/2/1 45/2/1
f 47/1/1 41/1/1 40/1/1
f 48/1/1 41/1/1 47/1/1
f 49/1/1 43/1/1 42/1/1
f 50/1/1 43/1/1 49/1/1
f 51/2/1 10/2/1 44/2/1
f 52/2/1 10/2/1 51/2/1
f 53/2/1 50/2/1 49/2/1
f 53/2/1 48/2/1 47/2/1
f 53/2/1 51/2/1 50/2/1
f 53/2/1 49/2/1 48/2/1
f 53/2/1 47/2/1 46/2/1
f 54/2/1 51/2/1 53/2/1
f 57/1/1 56/1/1 55/1/1
f 58/1/1 56/1/1 57/1/1
f 63/2/1 60/2/1 59/2/1
f 64/2/1 60/2/1 63/2/1
f 67/2/1 62/2/1 61/2/1
f 68/2/1 62/2/1 67/2/1
f 69/1/1 65/1/1 64/1/1
f 70/1/1 65/1/1 69/1/1
f 71/1/1 67/1/1 66/1/1
f 72/1/1 67/1/1 71/1/1
f 74/1/1 71/1/1 70/1/1
f 75/1/1 71/1/1 74/1/1
f 77/2/1 74/2/1 73/2/1
f 78/1/1 75/1/1 74/1/1
f 78/2/1 74/2/1 77/2/1
f 79/2/1 76/2/1 75/2/1
f 79/1/1 75/1/1 78/1/1
f 80/2/1 76/2/1 79/2/1
f 83/2/1 82/2/1 81/2/1
f 84/2/1 82/2/1 83/2/1
f 85/2/2 86/2/2 87/2/2
f 87/2/2 86/2/2 88/2/2
f 90/1/2 91/1/2 93/1/2
f 93/1/2 91/1/2 94/1/2
f 94/1/2 91/1/2 95/1/2
f 95/1/2 91/1/2 96/1/2
f 89/2/2 90/2/2 97/2/2
f 90/1/2 93/1/2 97/1/2
f 97/1/2 93/1/2 98/1/2
f 94/1/2 95/1/2 99/1/2
f 99/1/2 95/1/2 100/1/2
f 96/1/2 91/1/2 101/1/2
f 91/2/2 92/2/2 102/2/2
f 101/1/2 91/1/2 102/1/2
f 89/2/2 97/2/2 103/2/2
f 98/1/2 99/1/2 104/1/2
f 104/1/2 99/1/2 105/1/2
f 100/1/2 101/1/2 106/1/2
f 106/1/2 101/1/2 107/1/2
f 102/2/2 92/2/2 108/2/2
f 89/2/2 103/2/2 109/2/2
f 103/1/2 104/1/2 109/1/2
f 109/1/2 104/1/2 110/1/2
f 105/1/2 106/1/2 111/1/2
f 111/1/2 106/1/2 112/1/2
f 107/1/2 108/1/2 113/1/2
f 108/2/2 92/2/2 114/2/2
f 113/1/2 108/1/2 114/1/2
f 89/2/2 109/2/2 115/2/2
f 110/1/2 111/1/2 116/1/2
f 116/1/2 111/1/2 117/1/2
f 112/1/2 113/1/2 118/1/2
f 118/1/2 113/1/2 119/1/2
f 114/2/2 92/2/2 120/2/2
f 89/2/2 115/2/2 121/2/2
f 115/1/2 116/1/2 121/1/2
f 121/1/2 116/1/2 122/1/2
f 117/1/2 118/1/2 123/1/2
f 123/1/2 118/1/2 124/1/2
f 119/1/2 120/1/2 125/1/2
f 120/2/2 92/2/2 126/2/2
f 125/1/2 120/1/2 126/1/2
f 89/2/2 121/2/2 127/2/2
f 127/2/2 121/2/2 128/2/2
f 122/1/2 123/1/2 129/1/2
f 129/1/2 123/1/2 130/1/2
f 124/1/2 125/1/2 131/1/2
f 131/1/2 125/1/2 132/1/2
f 126/2/2 92/2/2 133/2/2
f 133/2/2 92/2/2 134/2/2
f 131/2/2 132/2/2 135/2/2
f 129/2/2 130/2/2 135/2/2
f 132/2/2 133/2/2 135/2/2
f 130/2/2 131/2/2 135/2/2
f 128/2/2 129/2/2 135/2/2
f 135/2/2 133/2/2 136/2/2
f 137/2/2 138/2/2 141/2/2
f 141/2/2 138/2/2 142/2/2
f 139/2/2 140/2/2 145/2/2
f 145/2/2 140/2/2 146/2/2
f 142/1/2 143/1/2 147/1/2
f 147/1/2 143/1/2 148/1/2
f 144/1/2 145/1/2 149/1/2
f 149/1/2 145/1/2 150/1/2
f 148/1/2 149/1/2 152/1/2
f 152/1/2 149/1/2 153/1/2
f 151/2/2 152/2/2 155/2/2
f 155/2/2 152/2/2 156/2/2
f 153/2/2 154/2/2 157/2/2
f 157/2/2 154/2/2 158/2/2
f 159/2/2 160/2/2 161/2/2
f 161/2/2 160/2/2 162/2/2
f 163/1/2 164/1/2 165/1/2
f 165/1/2 164/1/2 166/1/2
f 167/1/2 168/1/2 171/1/2
f 171/1/2 168/1/2 172/1/2
f 169/1/2 170/1/2 173/1/2
f 173/1/2 170/1/2 174/1/2
f 175/2/2 176/2/2 177/2/2
f 177/2/2 176/2/2 178/2/2
f 179/1/2 180/1/2 181/1/2
f 181/1/2 180/1/2 182/1/2
f 186/1/3 184/1/3 183/1/3
f 186/2/3 185/2/3 184/2/3
f 187/2/3 185/2/3 186/2/3
f 190/2/3 189/2/3 188/2/3
f 191/2/3 189/2/3 190/2/3
f 192/1/3 186/1/3 183/1/3
f 193/1/3 186/1/3 192/1/3
f 196/2/3 195/2/3 194/2/3
f 197/2/3 195/2/3 196/2/3
f 200/1/3 199/1/3 198/1/3
f 201/1/3 199/1/3 200/1/3
f 204/1/3 203/1/3 202/1/3
f 205/1/3 203/1/3 204/1/3
f 212/1/3 207/1/3 206/1/3
f 213/1/3 207/1/3 212/1/3
f 214/1/3 209/1/3 208/1/3
f 215/1/3 209/1/3 214/1/3
f 216/1/3 211/1/3 210/1/3
f 217/1/3 211/1/3 216/1/3
f 220/2/3 219/2/3 218/2/3
f 221/2/3 219/2/3 220/2/3
f 230/2/3 223/2/3 222/2/3
f 231/2/3 223/2/3 230/2/3
f 233/1/3 225/1/3 224/1/3
f 234/1/3 225/1/3 233/1/3
f 235/1/3 227/1/3 226/1/3
f 236/1/3 227/1/3 235/1/3
f 237/1/3 229/1/3 228/1/3
f 238/1/3 229/1/3 237/1/3
f 239/1/3 232/1/3 231/1/3
f 240/1/3 232/1/3 239/1/3
f 243/1/3 241/1/3 240/1/3
f 244/1/3 241/1/3 243/1/3
f 246/2/3 245/2/3 244/2/3
f 247/2/3 245/2/3 246/2/3
f 249/1/3 243/1/3 242/1/3
f 250/1/3 243/1/3 249/1/3
f 251/2/3 249/2/3 248/2/3
f 252/2/3 249/2/3 251/2/3
f 259/1/3 254/1/3 253/1/3
f 260/1/3 254/1/3 259/1/3
f 261/1/3 256/1/3 255/1/3
f 262/1/3 256/1/3 261/1/3
f 263/1/3 258/1/3 257/1/3
f 264/1/3 258/1/3 263/1/3
f 271/1/3 266/1/3 265/1/3
f 272/1/3 266/1/3 271/1/3
f 273/1/3 268/1/3 267/1/3
f 274/1/3 268/1/3 273/1/3
f 275/1/3 270/1/3 269/1/3
f 276/1/3 270/1/3 275/1/3
f 283/2/3 278/2/3 277/2/3
f 284/2/3 278/2/3 283/2/3
f 285/2/3 280/2/3 279/2/3
f 286/2/3 280/2/3 285/2/3
f 287/2/3 282/2/3 281/2/3
f 288/2/3 282/2/3 287/2/3
f 291/2/3 290/2/3 289/2/3
f 292/2/3 290/2/3 291/2/3
f 293/2/4 294/2/4 299/2/4
f 299/2/4 294/2/4 300/2/4
f 295/2/4 296/2/4 301/2/4
f 301/2/4 296/2/4 302/2/4
f 297/2/4 298/2/4 303/2/4
f 303/2/4 298/2/4 304/2/4
f 305/2/4 306/2/4 307/2/4
f 307/2/4 306/2/4 308/2/4
f 309/1/4 310/1/4 315/1/4
f 315/1/4 310/1/4 316/1/4
f 311/1/4 312/1/4 317/1/4
f 317/1/4 312/1/4 318/1/4
f 313/1/4 314/1/4 319/1/4
f 319/1/4 314/1/4 320/1/4
f 321/1/4 322/1/4 327/1/4
f 327/1/4 322/1/4 328/1/4
f 323/1/4 324/1/4 329/1/4
f 329/1/4 324/1/4 330/1/4
f 325/1/4 326/1/4 331/1/4
f 331/1/4 326/1/4 332/1/4
f 333/2/4 334/2/4 341/2/4
f 341/2/4 334/2/4 342/2/4
f 335/1/4 336/1/4 344/1/4
f 344/1/4 336/1/4 345/1/4
f 337/1/4 338/1/4 346/1/4
f 346/1/4 338/1/4 347/1/4
f 339/1/4 340/1/4 348/1/4
f 348/1/4 340/1/4 349/1/4
f 342/1/4 343/1/4 350/1/4
f 350/1/4 343/1/4 351/1/4
f 351/1/4 352/1/4 354/1/4
f 354/1/4 352/1/4 355/1/4
f 355/2/4 356/2/4 357/2/4
f 357/2/4 356/2/4 358/2/4
f 353/1/4 354/1/4 360/1/4
f 360/1/4 354/1/4 361/1/4
f 359/2/4 360/2/4 362/2/4
f 362/2/4 360/2/4 363/2/4
f 364/1/4 365/1/4 370/1/4
f 370/1/4 365/1/4 371/1/4
f 366/1/4 367/1/4 372/1/4
f 372/1/4 367/1/4 373/1/4
f 368/1/4 369/1/4 374/1/4
f 374/1/4 369/1/4 375/1/4
f 376/2/4 377/2/4 378/2/4
f 378/2/4 377/2/4 379/2/4
f 380/2/4 381/2/4 382/2/4
f 382/2/4 381/2/4 383/2/4
f 384/1/4 385/1/4 386/1/4
f 386/1/4 385/1/4 387/1/4
f 388/1/4 389/1/4 390/1/4
f 390/1/4 389/1/4 391/1/4
f 392/1/4 393/1/4 395/1/4
f 393/2/4 394/2/4 395/2/4
f 395/2/4 394/2/4 396/2/4
f 397/2/4 398/2/4 399/2/4
f 399/2/4 398/2/4 400/2/4
f 392/1/4 395/1/4 401/1/4
f 401/1/4 395/1/4 402/1/4
f 405/2/5 404/2/5 403/2/5
f 406/2/5 404/2/5 405/2/5
f 411/2/5 408/2/5 407/2/5
f 412/2/5 408/2/5 411/2/5
f 413/2/5 410/2/5 409/2/5
f 414/2/5 410/2/5 413/2/5
f 417/2/5 416/2/5 415/2/5
f 418/2/5 416/2/5 417/2/5
f 422/1/5 420/1/5 419/1/5
f 423/1/5 420/1/5 422/1/5
f 425/1/5 422/1/5 421/1/5
f 425/1/5 424/1/5 423/1/5
f 425/1/5 423/1/5 422/1/5
f 426/1/5 424/1/5 425/1/5
f 427/1/5 424/1/5 426/1/5
f 428/1/5 424/1/5 427/1/5
f 429/1/5 427/1/5 426/1/5
f 430/1/5 427/1/5 429/1/5
f 433/2/5 432/2/5 431/2/5
f 434/2/5 432/2/5 433/2/5
f 437/2/5 435/2/5 434/2/5
f 438/2/5 435/2/5 437/2/5
f 439/2/5 437/2/5 436/2/5
f 440/2/5 437/2/5 439/2/5
f 443/1/5 442/1/5 441/1/5
f 445/1/5 443/1/5 441/1/5
f 445/1/5 444/1/5 443/1/5
f 446/1/5 444/1/5 445/1/5
f 447/1/5 445/1/5 441/1/5
f 448/1/5 444/1/5 446/1/5
f 449/1/5 444/1/5 448/1/5
f 450/1/5 447/1/5 441/1/5
f 452/1/5 444/1/5 449/1/5
f 453/1/5 450/1/5 441/1/5
f 454/1/5 452/1/5 451/1/5
f 455/1/5 444/1/5 452/1/5
f 455/1/5 454/1/5 453/1/5
f 455/1/5 452/1/5 454/1/5
f 456/1/5 444/1/5 455/1/5
f 457/1/5 453/1/5 441/1/5
f 457/1/5 455/1/5 453/1/5
f 458/1/5 455/1/5 457/1/5
f 461/1/5 460/1/5 459/1/5
f 462/1/5 460/1/5 461/1/5
f 465/1/5 464/1/5 463/1/5
f 466/1/5 464/1/5 465/1/5
f 469/1/5 468/1/5 467/1/5
f 470/1/5 468/1/5 469/1/5
f 473/1/5 472/1/5 471/1/5
f 474/1/5 472/1/5 473/1/5
f 477/1/5 476/1/5 475/1/5
f 478/1/5 476/1/5 477/1/5
f 481/1/5 480/1/5 479/1/5
f 482/1/5 480/1/5 481/1/5
f 485/1/5 484/1/5 483/1/5
f 486/1/5 484/1/5 485/1/5
f 489/1/5 488/1/5 487/1/5
f 490/1/5 488/1/5 489/1/5
f 493/1/5 492/1/5 491/1/5
f 494/1/5 492/1/5 493/1/5
f 497/1/5 496/1/5 495/1/5
f 498/1/5 496/1/5 497/1/5
f 501/1/5 500/1/5 499/1/5
f 502/1/5 500/1/5 501/1/5
f 505/1/5 504/1/5 503/1/5
f 506/1/5 504/1/5 505/1/5
f 509/2/5 508/2/5 507/2/5
f 510/2/5 508/2/5 509/2/5
f 513/2/5 512/2/5 511/2/5
f 514/2/5 512/2/5 513/2/5
f 517/2/5 516/2/5 515/2/5
f 518/2/5 516/2/5 517/2/5
f 519/2/6 520/2/6 521/2/6
f 521/2/6 520/2/6 522/2/6
f 523/2/6 524/2/6 527/2/6
f 527/2/6 524/2/6 528/2/6
f 525/2/6 526/2/6 529/2/6
f 529/2/6 526/2/6 530/2/6
f 531/2/6 532/2/6 533/2/6
f 533/2/6 532/2/6 534/2/6
f 535/1/6 536/1/6 538/1/6
f 538/1/6 536/1/6 539/1/6
f 537/1/6 538/1/6 541/1/6
f 541/1/6 538/1/6 542/1/6
f 539/1/6 540/1/6 543/1/6
f 543/1/6 540/1/6 544/1/6
f 542/1/6 543/1/6 545/1/6
f 545/1/6 543/1/6 546/1/6
f 547/1/6 548/1/6 549/1/6
f 549/1/6 548/1/6 550/1/6
f 549/1/6 550/1/6 552/1/6
f 550/1/6 551/1/6 552/1/6
f 552/1/6 551/1/6 553/1/6
f 553/1/6 551/1/6 554/1/6
f 552/1/6 553/1/6 555/1/6
f 555/1/6 553/1/6 556/1/6
f 557/1/6 558/1/6 559/1/6
f 559/1/6 558/1/6 560/1/6
f 561/1/6 562/1/6 563/1/6
f 563/1/6 562/1/6 564/1/6
f 565/1/6 566/1/6 567/1/6
f 567/1/6 566/1/6 568/1/6
f 569/1/6 570/1/6 571/1/6
f 571/1/6 570/1/6 572/1/6
f 573/1/6 574/1/6 575/1/6
f 575/1/6 574/1/6 576/1/6
f 577/1/6 578/1/6 579/1/6
f 579/1/6 578/1/6 580/1/6
f 581/1/6 582/1/6 583/1/6
f 583/1/6 582/1/6 584/1/6
f 585/1/6 586/1/6 587/1/6
f 587/1/6 586/1/6 588/1/6
f 589/1/6 590/1/6 591/1/6
f 591/1/6 590/1/6 592/1/6
f 593/1/6 594/1/6 595/1/6
f 595/1/6 594/1/6 596/1/6
f 597/1/6 598/1/6 599/1/6
f 599/1/6 598/1/6 600/1/6
f 601/1/6 602/1/6 603/1/6
f 603/1/6 602/1/6 604/1/6
f 605/1/6 606/1/6 607/1/6
f 607/1/6 606/1/6 608/1/6
f 609/1/6 610/1/6 611/1/6
f 611/1/6 610/1/6 612/1/6
f 613/1/6 614/1/6 615/1/6
f 615/1/6 614/1/6 616/1/6
f 617/2/6 618/2/6 619/2/6
f 619/2/6 618/2/6 620/2/6
f 621/2/6 622/2/6 623/2/6
f 623/2/6 622/2/6 624/2/6
f 625/2/6 626/2/6 627/2/6
f 627/2/6 626/2/6 628/2/6
